<?xml version="1.0" encoding="UTF-8"?>
<svg xmlns="http://www.w3.org/2000/svg" viewBox="0 0 600 400" preserveAspectRatio="xMidYMid slice" role="img" aria-label="Sailboat at sea">
  <defs>
    <linearGradient id="b-sky" x1="0" x2="0" y1="0" y2="1">
      <stop offset="0%" stop-color="#a8c4d4"/>
      <stop offset="100%" stop-color="#f0e6c8"/>
    </linearGradient>
    <linearGradient id="b-sea" x1="0" x2="0" y1="0" y2="1">
      <stop offset="0%" stop-color="#3a6f8a"/>
      <stop offset="100%" stop-color="#1f3a52"/>
    </linearGradient>
  </defs>
  <rect width="600" height="240" fill="url(#b-sky)"/>
  <circle cx="480" cy="100" r="32" fill="#fff8e8" opacity="0.7"/>
  <rect y="240" width="600" height="160" fill="url(#b-sea)"/>
  <g stroke="#a8c4d4" stroke-width="1" opacity="0.5">
    <line x1="40" y1="280" x2="120" y2="280"/>
    <line x1="180" y1="290" x2="280" y2="290"/>
    <line x1="340" y1="300" x2="440" y2="300"/>
    <line x1="60" y1="320" x2="160" y2="320"/>
    <line x1="240" y1="330" x2="340" y2="330"/>
    <line x1="380" y1="340" x2="500" y2="340"/>
  </g>
  <g transform="translate(300,250)">
    <path d="M-50,0 L50,0 L40,18 L-40,18 Z" fill="#7a5e47"/>
    <path d="M-50,0 L50,0 L40,18 L-40,18 Z" fill="none" stroke="#3a2818" stroke-width="1.5"/>
    <line x1="0" y1="0" x2="0" y2="-90" stroke="#3a2818" stroke-width="3"/>
    <path d="M0,-85 L0,-10 L40,-10 Z" fill="#fff8e8"/>
    <path d="M0,-85 L0,-10 L40,-10 Z" fill="none" stroke="#a85f3a" stroke-width="1.5"/>
    <path d="M0,-70 L0,-10 L-30,-10 Z" fill="#f4ead9"/>
    <path d="M0,-70 L0,-10 L-30,-10 Z" fill="none" stroke="#a85f3a" stroke-width="1.5"/>
  </g>
  <text x="300" y="380" text-anchor="middle" font-family="Georgia, serif" font-size="14" fill="#fff" opacity="0.9" letter-spacing="3">OUTDOOR LEARNING</text>
</svg>
